<svg xmlns="http://www.w3.org/2000/svg" viewBox="0 0 512 512" role="img" aria-label="Darth Vader icon">
  <path fill="#FFE81F" d="M256 16c-46 0-86 28-96 69l-26 107C85 209 48 266 48 327v120c0 27 22 49 49 49h82c9 0 17-6 19-15l22-84h176l22 84c2 9 10 15 19 15h82c27 0 49-22 49-49V327c0-61-37-118-86-135l-26-107C342 44 302 16 256 16Zm0 80c22 0 41 14 46 34l12 54H198l12-54c5-20 24-34 46-34Zm-87 205 11-58h162l11 58c2 10-6 19-16 19H185c-10 0-18-9-16-19Zm-63 39h46l-15 60h-31c-5 0-9-4-9-9v-42c0-5 4-9 9-9Zm350 0c5 0 9 4 9 9v42c0 5-4 9-9 9h-31l-15-60h46Zm-241 60h110l14 50H209l14-50Z"/>
</svg>
